<svg xmlns="http://www.w3.org/2000/svg" xmlns:xlink="http://www.w3.org/1999/xlink" id="Layer_1" x="0px" y="0px" viewBox="0 0 470 420" style="enable-background:new 0 0 470 420;" xml:space="preserve">
<style type="text/css">
	.st0{enable-background:new    ;}
	.st1{fill:#FF9C00;}
	.st2{fill:#FFC000;}
	.st3{fill:#EA7500;}
	.st4{fill:#EBF5FF;}
	.st5{fill:#DEF2FF;}
	.st6{fill:#C3DFF4;}
	.st7{fill:#D7E9FF;}
	.st8{fill:#B8D2E8;}
	.st9{fill:#AFD2E8;}
	.st10{fill:#F3F4F8;}
	.st11{clip-path:url(#SVGID_2_);enable-background:new    ;}
	.st12{fill:#318385;}
	.st13{fill:#33888A;}
	.st14{fill:#358D8F;}
	.st15{fill:#379294;}
	.st16{fill:#399799;}
	.st17{fill:#3B9C9E;}
	.st18{fill:#3DA1A3;}
	.st19{fill:#3FA6A8;}
	.st20{fill:#41ABAD;}
	.st21{fill:#43B0B3;}
	.st22{fill:#44B5B8;}
	.st23{clip-path:url(#SVGID_4_);enable-background:new    ;}
	.st24{fill:#858585;}
	.st25{fill:#338789;}
	.st26{fill:#898989;}
	.st27{clip-path:url(#SVGID_6_);enable-background:new    ;}
	.st28{fill:#949494;}
	.st29{fill:#999999;}
	.st30{fill:#9E9E9E;}
	.st31{fill:#A3A3A3;}
	.st32{fill:#A8A8A8;}
	.st33{fill:#ADADAD;}
	.st34{fill:#B3B3B3;}
	.st35{fill:#B8B8B8;}
	.st36{fill:#8F8F8F;}
	.st37{fill:#8A8A8A;}
	.st38{fill:#DCDCDC;}
	.st39{fill:#4A79D8;}
	.st40{fill:#85A9FF;}
	.st41{fill:#E3F1FE;}
	.st42{opacity:0;fill:#E3F1FE;}
	.st43{opacity:0.3;fill:#FFFFFF;}
	.st44{clip-path:url(#SVGID_8_);enable-background:new    ;}
	.st45{fill:#6E0049;}
	.st46{fill:#72004C;}
	.st47{fill:#76004F;}
	.st48{fill:#7A0052;}
	.st49{fill:#7F0055;}
	.st50{fill:#830057;}
	.st51{fill:#87005A;}
	.st52{fill:#8B005D;}
	.st53{fill:#8F0060;}
	.st54{fill:#940063;}
	.st55{fill:#980066;}
	.st56{clip-path:url(#SVGID_10_);enable-background:new    ;}
	.st57{clip-path:url(#SVGID_12_);enable-background:new    ;}
	.st58{fill:#71004C;}
	.st59{fill:#FFFFFF;}
	.st60{fill:#FFB000;}
	.st61{fill:#AEB9E5;}
	.st62{fill:#C2CAF9;}
	.st63{fill:#8B9ACC;}
	.st64{opacity:0.1;fill:#FFFFFF;}
	.st65{clip-path:url(#SVGID_14_);enable-background:new    ;}
	.st66{clip-path:url(#SVGID_16_);enable-background:new    ;}
	.st67{clip-path:url(#SVGID_18_);enable-background:new    ;}
	.st68{fill:#1AA6B5;}
	.st69{fill:#42C4E3;}
	.st70{fill:#2AB9D1;}
	.st71{fill:#D3008D;}
	.st72{clip-path:url(#SVGID_20_);enable-background:new    ;}
	.st73{clip-path:url(#SVGID_22_);enable-background:new    ;}
	.st74{clip-path:url(#SVGID_24_);enable-background:new    ;}
	.st75{fill:#615A8E;}
	.st76{fill:#484475;}
	.st77{fill:#171718;}
	.st78{fill:#282528;}
	.st79{fill:#FFAA83;}
	.st80{fill:#F29C79;}
	.st81{fill:#F2C9F2;}
	.st82{fill:#FFE9FE;}
	.st83{fill:#F79F7C;}
	.st84{fill:#221D19;}
	.st85{fill:#E3B1E5;}
	.st86{fill:#F0F8FF;}
</style>
<g>
	<g>
		<g>
			<g>
				<g class="st0">
					<g>
						<polygon class="st1" points="433.6,275.3 442.4,270.2 442.9,111.7 434,116.8       "></polygon>
					</g>
					<g>
						<polygon class="st2" points="434,116.8 442.9,111.7 249.5,0 240.6,5.2       "></polygon>
					</g>
					<g>
						<polygon class="st3" points="240.6,5.2 240.1,163.6 433.6,275.3 434,116.8       "></polygon>
					</g>
				</g>
			</g>
			<g>
				<g class="st0">
					<g>
						<polygon class="st4" points="421.1,278.5 429.7,273.5 430.2,119.3 421.5,124.3       "></polygon>
					</g>
					<g>
						<polygon class="st5" points="421.5,124.3 430.2,119.3 242,10.6 233.3,15.6       "></polygon>
					</g>
					<g>
						<polygon class="st6" points="233.3,15.6 232.9,169.8 421.1,278.5 421.5,124.3       "></polygon>
					</g>
				</g>
			</g>
			<path class="st7" d="M331.8,73c0,0,30.2,39.3,91.3,56.6l-3.8,154.8c0,0-49.7-0.3-87.5-48.5V73z"></path>
			<path class="st4" d="M331.8,73c0,0,16.4,48.2,77.5,65.6l-3,145.6c0,0-36.8,0-74.5-48.2V73z"></path>
			<path class="st7" d="M331.8,73c0,0-3.6,49.8,57.5,67.2v140.3c0,0-46.1-5.2-57.5-44.6V73z"></path>
			<path class="st4" d="M331.8,73c0,0-44.6-4.9-91.2-47.7l2.2,159.4c0,0,31.5,54.2,89,51.3V73z"></path>
			<path class="st8" d="M331.8,73c0,0-48.8,8.3-95.4-34.5v142.9c0,0,37.9,57.4,95.4,54.6V73z"></path>
			<path class="st4" d="M331.8,73c0,0-50.6,8.3-98.8-20.6l6.4,143.4c0,0,34.8,45.2,92.5,40.2V73z"></path>
		</g>
		<g>
			<path class="st9" d="M313.9,104.2c5.3,0,8.6-0.3,9.1-0.3l-0.5-4.9c-0.5,0-49.9,3.6-82.4-21.8v2.1     C265.7,99.2,298,104.2,313.9,104.2z"></path>
		</g>
		<g>
			<path class="st9" d="M312.9,126.8c5.3,0,8.6-0.3,9.1-0.3l-0.5-4.9c-0.5,0-49.9,3.6-82.4-21.8v2.1     C264.8,121.8,297,126.8,312.9,126.8z"></path>
		</g>
		<g>
			<path class="st9" d="M312.9,153.2c5.3,0,8.6-0.3,9.1-0.3l-0.5-4.9c-0.5,0-49.9,3.6-82.4-21.8v2.1     C264.8,148.2,297,153.2,312.9,153.2z"></path>
		</g>
		<g>
			<path class="st9" d="M312.9,180.3c5.3,0,8.6-0.3,9.1-0.3l-0.5-4.9c-0.5,0-49.9,3.6-82.4-21.8v2.1     C264.8,175.3,297,180.3,312.9,180.3z"></path>
		</g>
		<g>
			<path class="st9" d="M314.7,206.3c5.3,0,8.6-0.3,9.1-0.3l-0.5-4.9c-0.5,0-49.9,3.6-82.4-21.8v2.1     C266.5,201.3,298.7,206.3,314.7,206.3z"></path>
		</g>
		<path class="st9" d="M337.1,119.3c0,0,17.8,22.7,40.3,29.1v4.8c0,0-22.7-9.3-40.3-31.7V119.3z"></path>
		<path class="st9" d="M337.1,139c0,0,17.8,22.7,40.3,29.1v4.8c0,0-22.7-9.2-40.3-31.7V139z"></path>
		<path class="st9" d="M337.1,163.7c0,0,17.8,22.7,40.3,29.2v4.8c0,0-22.7-9.3-40.3-31.7V163.7z"></path>
		<path class="st9" d="M337.1,188.3c0,0,17.8,22.7,40.3,29.1v4.8c0,0-22.7-9.3-40.3-31.7V188.3z"></path>
		<path class="st9" d="M337.1,217.9c0,0,17.8,22.7,40.3,29.1v4.8c0,0-22.7-9.3-40.3-31.7V217.9z"></path>
	</g>
</g>
<path class="st10" d="M375,336.4l-11.2-6.5L183.5,225.1l-3.1-1.8c-8.3-4.8-21.8-4.8-30.2,0L42,285.8c-8.4,4.8-8.4,12.7-0.1,17.5  l3.1,1.8l180.3,104.8l11.2,6.5c8.3,4.8,21.9,4.8,30.2,0l108.2-62.5C383.2,349.1,383.3,341.2,375,336.4z"></path>
<g class="st0">
	<defs>
		<path id="SVGID_1_" class="st0" d="M140.4,244.5c0-6.4,0-12.7-0.1-19.1c0-0.4-0.3-0.8-0.8-1.2c-1.1-0.7-3-0.7-4.1,0l0.1,19    c1.1-0.6,3-0.6,4.1,0C140.1,243.6,140.4,244,140.4,244.5z"></path>
	</defs>
	<clipPath id="SVGID_2_">
		<use xlink:href="#SVGID_1_" style="overflow:visible;"></use>
	</clipPath>
	<g class="st11">
		<path class="st12" d="M135.4,224.2l0.1,19c0.1-0.1,0.3-0.1,0.4-0.2l0-19.1C135.7,224.1,135.5,224.1,135.4,224.2L135.4,224.2z"></path>
		<path class="st13" d="M135.8,224l0,19.1c0.1-0.1,0.2-0.1,0.4-0.1l-0.1-19.1C136.1,223.9,135.9,224,135.8,224L135.8,224z"></path>
		<path class="st14" d="M136.2,223.9l0.1,19.1c0.1,0,0.2-0.1,0.3-0.1l0-19.1C136.4,223.9,136.3,223.9,136.2,223.9L136.2,223.9z"></path>
		<path class="st15" d="M136.5,223.8l0,19.1c0.1,0,0.2,0,0.3,0l-0.1-19C136.7,223.8,136.6,223.8,136.5,223.8L136.5,223.8z"></path>
		<path class="st16" d="M136.8,223.8l0.1,19c0.1,0,0.2,0,0.3,0l-0.1-19.1C137,223.8,136.9,223.8,136.8,223.8L136.8,223.8z"></path>
		<path class="st17" d="M137,223.8l0.1,19.1c0.1,0,0.2,0,0.3,0l-0.1-19.1C137.2,223.7,137.1,223.7,137,223.8L137,223.8z"></path>
		<path class="st18" d="M137.3,223.7l0.1,19.1c0.1,0,0.2,0,0.3,0l-0.1-19.1C137.5,223.7,137.4,223.7,137.3,223.7L137.3,223.7z"></path>
		<path class="st19" d="M137.6,223.7l0.1,19.1c0.1,0,0.2,0,0.3,0l-0.1-19.1C137.9,223.7,137.7,223.7,137.6,223.7L137.6,223.7z"></path>
		<path class="st20" d="M138,223.8l0.1,19.1c0.1,0,0.2,0,0.4,0l0-19C138.2,223.8,138.1,223.8,138,223.8L138,223.8z"></path>
		<path class="st21" d="M138.3,223.8l0,19c0.2,0,0.4,0.1,0.6,0.1l-0.1-19C138.7,223.9,138.5,223.8,138.3,223.8L138.3,223.8z"></path>
		<path class="st22" d="M138.9,224l0.1,19c0.2,0.1,0.4,0.2,0.6,0.3c0,0,0,0,0,0l-0.1-19c0,0,0,0,0,0    C139.3,224.1,139.1,224,138.9,224L138.9,224z"></path>
		<path class="st21" d="M139.5,224.2l0.1,19c0.1,0.1,0.3,0.2,0.4,0.3l-0.1-19.1C139.8,224.4,139.7,224.3,139.5,224.2L139.5,224.2z"></path>
		<path class="st20" d="M139.9,224.5l0.1,19.1c0.1,0.1,0.1,0.1,0.2,0.2l-0.1-19.1C140,224.6,140,224.6,139.9,224.5L139.9,224.5z"></path>
		<path class="st19" d="M140.1,224.7l0.1,19.1c0,0.1,0.1,0.1,0.1,0.2l0-19.1C140.2,224.8,140.1,224.8,140.1,224.7L140.1,224.7z"></path>
		<path class="st18" d="M140.2,224.9l0,19.1c0,0.1,0.1,0.1,0.1,0.2l-0.1-19.1C140.2,225,140.2,224.9,140.2,224.9L140.2,224.9z"></path>
		<path class="st17" d="M140.3,225l0.1,19.1c0,0.1,0,0.1,0,0.2l-0.1-19.1C140.3,225.2,140.3,225.1,140.3,225L140.3,225z"></path>
		<path class="st16" d="M140.3,225.2l0.1,19.1c0,0.1,0,0.1,0,0.2l-0.1-19.1C140.3,225.3,140.3,225.3,140.3,225.2L140.3,225.2z"></path>
		<path class="st15" d="M140.3,225.4l0.1,19.1c0,0,0,0,0,0L140.3,225.4C140.3,225.4,140.3,225.4,140.3,225.4L140.3,225.4z"></path>
	</g>
</g>
<g class="st0">
	<defs>
		<path id="SVGID_3_" class="st0" d="M140.4,244.5c0-6.4,0-12.7-0.1-19.1c0,0.4-0.3,0.9-0.9,1.2l0.1,19.1    C140.1,245.3,140.4,244.9,140.4,244.5z"></path>
	</defs>
	<clipPath id="SVGID_4_">
		<use xlink:href="#SVGID_3_" style="overflow:visible;"></use>
	</clipPath>
	<g class="st23">
		<path class="st24" d="M139.5,226.6l0.1,19.1c0.6-0.3,0.9-0.8,0.9-1.2l-0.1-19.1C140.3,225.8,140.1,226.3,139.5,226.6L139.5,226.6z    "></path>
	</g>
</g>
<g>
	<polygon class="st25" points="88.9,251.1 89,270.1 135.5,243.3 135.4,224.2  "></polygon>
</g>
<g>
	<polygon class="st26" points="93,253.4 93.1,272.5 139.5,245.6 139.5,226.6  "></polygon>
</g>
<g class="st0">
	<defs>
		<path id="SVGID_5_" class="st0" d="M88.1,252.2c0,6.4,0,12.7,0.1,19.1c0,0.4,0.3,0.8,0.8,1.2c1.1,0.7,2.9,0.7,4.1,0l-0.1-19    c-1.1,0.7-3,0.7-4.1,0C88.4,253.1,88.1,252.7,88.1,252.2z"></path>
	</defs>
	<clipPath id="SVGID_6_">
		<use xlink:href="#SVGID_5_" style="overflow:visible;"></use>
	</clipPath>
	<g class="st27">
		<path class="st28" d="M88.1,252.2l0.1,19.1c0,0,0,0,0,0L88.1,252.2C88.1,252.3,88.1,252.3,88.1,252.2L88.1,252.2z"></path>
		<path class="st29" d="M88.1,252.3l0.1,19.1c0,0.1,0,0.1,0,0.2l-0.1-19.1C88.1,252.4,88.1,252.3,88.1,252.3L88.1,252.3z"></path>
		<path class="st30" d="M88.1,252.4l0.1,19.1c0,0.1,0,0.1,0,0.2l0-19C88.2,252.5,88.1,252.5,88.1,252.4L88.1,252.4z"></path>
		<path class="st31" d="M88.2,252.6l0,19c0,0.1,0.1,0.1,0.1,0.2l-0.1-19.1C88.2,252.7,88.2,252.6,88.2,252.6L88.2,252.6z"></path>
		<path class="st32" d="M88.2,252.8l0.1,19.1c0,0.1,0.1,0.1,0.1,0.2l0-19.1C88.3,252.9,88.3,252.8,88.2,252.8L88.2,252.8z"></path>
		<path class="st33" d="M88.4,252.9l0,19.1c0.1,0.1,0.1,0.1,0.2,0.2l-0.1-19C88.5,253.1,88.4,253,88.4,252.9L88.4,252.9z"></path>
		<path class="st34" d="M88.5,253.1l0.1,19c0.1,0.1,0.2,0.2,0.4,0.3l0-19C88.8,253.3,88.6,253.2,88.5,253.1L88.5,253.1z"></path>
		<path class="st35" d="M88.9,253.4l0,19c0,0,0,0,0,0c0.2,0.1,0.4,0.2,0.6,0.3l-0.1-19.1C89.3,253.6,89.1,253.5,88.9,253.4    C88.9,253.4,88.9,253.4,88.9,253.4L88.9,253.4z"></path>
		<path class="st34" d="M89.6,253.7l0.1,19.1c0.2,0,0.4,0.1,0.5,0.1l-0.1-19C89.9,253.8,89.7,253.8,89.6,253.7L89.6,253.7z"></path>
		<path class="st33" d="M90.1,253.8l0.1,19c0.1,0,0.2,0,0.4,0.1l0-19C90.4,253.9,90.2,253.9,90.1,253.8L90.1,253.8z"></path>
		<path class="st32" d="M90.5,253.9l0,19c0.1,0,0.2,0,0.3,0l-0.1-19C90.7,253.9,90.6,253.9,90.5,253.9L90.5,253.9z"></path>
		<path class="st31" d="M90.8,253.9l0.1,19c0.1,0,0.2,0,0.3,0l-0.1-19C91,253.9,90.9,253.9,90.8,253.9L90.8,253.9z"></path>
		<path class="st30" d="M91.1,253.9l0.1,19c0.1,0,0.2,0,0.3,0l-0.1-19C91.3,253.9,91.2,253.9,91.1,253.9L91.1,253.9z"></path>
		<path class="st29" d="M91.4,253.9l0.1,19c0.1,0,0.2,0,0.3,0l-0.1-19C91.6,253.9,91.5,253.9,91.4,253.9L91.4,253.9z"></path>
		<path class="st28" d="M91.7,253.9l0.1,19c0.1,0,0.2,0,0.3,0l-0.1-19.1C91.9,253.8,91.8,253.8,91.7,253.9L91.7,253.9z"></path>
		<path class="st36" d="M91.9,253.8l0.1,19.1c0.1,0,0.2,0,0.3-0.1l0-19C92.2,253.8,92.1,253.8,91.9,253.8L91.9,253.8z"></path>
		<path class="st37" d="M92.3,253.7l0,19c0.1,0,0.2-0.1,0.4-0.1l0-19.1C92.5,253.7,92.4,253.7,92.3,253.7L92.3,253.7z"></path>
		<path class="st24" d="M92.6,253.6l0,19.1c0.2-0.1,0.3-0.1,0.4-0.2l-0.1-19C92.9,253.5,92.8,253.6,92.6,253.6L92.6,253.6z"></path>
	</g>
</g>
<g>
	<path class="st38" d="M88.9,251.1c-1.1,0.7-1.1,1.7,0,2.4c1.1,0.7,3,0.7,4.1,0l46.5-26.8c1.1-0.6,1.1-1.7,0-2.4   c-1.1-0.7-3-0.7-4.1,0L88.9,251.1z"></path>
</g>
<path class="st2" d="M49.1,271.8c0,0.1,0,0.2,0,0.3c0,0.1,0,0.2,0,0.3c0,0.1,0,0.2,0.1,0.3c0,0.1,0,0.2,0.1,0.3c0,0.1,0,0.2,0.1,0.3  c0,0.1,0.1,0.2,0.1,0.3c0,0.1,0.1,0.2,0.1,0.3c0,0.1,0.1,0.2,0.1,0.3c0,0.1,0.1,0.2,0.1,0.3c0,0.1,0.1,0.2,0.1,0.3  c0,0.1,0.1,0.2,0.1,0.3c0,0.1,0.1,0.2,0.1,0.3c0.1,0.1,0.1,0.2,0.2,0.4c0,0.1,0.1,0.1,0.1,0.2c0.1,0.1,0.2,0.3,0.3,0.4  c0,0.1,0.1,0.1,0.1,0.2c0.2,0.2,0.3,0.4,0.5,0.6c0,0.1,0.1,0.1,0.2,0.2c0.1,0.2,0.3,0.3,0.4,0.5c0.1,0.1,0.1,0.1,0.2,0.2  c0.1,0.1,0.2,0.2,0.3,0.3c0.1,0.1,0.2,0.2,0.3,0.2c0.1,0.1,0.2,0.2,0.3,0.2c0.1,0.1,0.2,0.2,0.3,0.2c0.1,0.1,0.2,0.1,0.3,0.2  c0.1,0.1,0.2,0.2,0.3,0.2c0.1,0.1,0.2,0.1,0.4,0.2c0.2,0.1,0.3,0.2,0.5,0.3l2.9,1.7l0.1,19l-2.9-1.7c-0.1,0-0.2-0.1-0.2-0.1  c-0.1,0-0.1-0.1-0.2-0.1c-0.1-0.1-0.3-0.2-0.4-0.2c-0.1-0.1-0.2-0.1-0.3-0.2c-0.1-0.1-0.2-0.2-0.4-0.3c-0.1-0.1-0.2-0.1-0.3-0.2  c-0.1-0.1-0.2-0.2-0.3-0.3c-0.1-0.1-0.2-0.1-0.3-0.2c-0.1-0.1-0.2-0.2-0.3-0.3c0,0-0.1-0.1-0.1-0.1c0,0-0.1-0.1-0.1-0.1  c-0.2-0.2-0.3-0.3-0.5-0.5c0-0.1-0.1-0.1-0.1-0.2c-0.2-0.2-0.4-0.4-0.5-0.6c0,0,0,0,0,0c0,0-0.1-0.1-0.1-0.1  c-0.1-0.1-0.2-0.3-0.3-0.4c0-0.1-0.1-0.1-0.1-0.2c-0.1-0.1-0.2-0.2-0.2-0.4c0,0,0-0.1-0.1-0.1c0,0,0-0.1-0.1-0.1  c-0.1-0.1-0.1-0.2-0.2-0.3c0-0.1-0.1-0.2-0.1-0.2c0-0.1-0.1-0.2-0.1-0.3c0,0,0-0.1-0.1-0.1c0,0,0-0.1,0-0.1c0-0.1-0.1-0.2-0.1-0.3  c0-0.1-0.1-0.2-0.1-0.3c0-0.1-0.1-0.2-0.1-0.3c0,0,0-0.1,0-0.2c0,0,0-0.1,0-0.1c0-0.1,0-0.2,0-0.3c0-0.1,0-0.2,0-0.3  c0-0.1,0-0.2,0-0.3c0-0.1,0-0.1,0-0.2c0-0.1,0-0.1,0-0.2c0-6.4,0-12.7-0.1-19C49,271.6,49,271.7,49.1,271.8z"></path>
<path class="st6" d="M55,263.1c-7.9,4.6-8,12-0.1,16.5l2.9,1.7l130.8-75.5l-2.9-1.7c-7.9-4.6-20.6-4.6-28.5,0L55,263.1z"></path>
<path class="st39" d="M93,253.4c-1.1,0.7-3,0.7-4.1,0c-1.1-0.7-1.1-1.7,0-2.4l46.5-26.8c1.1-0.7,3-0.7,4.1,0c1.1,0.7,1.1,1.7,0,2.4  L93,253.4L93,253.4z"></path>
<path class="st40" d="M93,253.4l46.5-26.8c0.2-0.1,0.3-0.2,0.4-0.4c-0.1-0.1-0.2-0.2-0.4-0.3c-1.1-0.7-3-0.7-4.1,0l-46.5,26.8  c-0.2,0.1-0.3,0.2-0.4,0.4c0.1,0.1,0.2,0.2,0.4,0.3C90.1,254.1,91.9,254.1,93,253.4z"></path>
<g>
	<polygon class="st25" points="57.8,281.4 57.9,300.4 188.7,224.9 188.6,205.8  "></polygon>
</g>
<g>
	<polygon class="st6" points="57.8,281.4 57.9,300.4 228.2,399.4 228.2,380.4  "></polygon>
</g>
<g>
	<polygon class="st41" points="57.8,281.4 228.2,380.4 359,304.8 188.6,205.8  "></polygon>
</g>
<g>
	<path class="st42" d="M54.7,200l2.9,1.7l170.2,98.9l10.5,6.1c7.9,4.6,20.6,4.6,28.5,0l102.1-59c7.9-4.6,7.9-12,0.1-16.5l-10.5-6.1   l-170.2-98.9l-2.9-1.7c-7.8-4.6-20.6-4.6-28.5,0l-102.1,59C46.9,188.1,46.8,195.5,54.7,200z"></path>
</g>
<path class="st43" d="M188.8,205.8l-2.9-1.7c-7.9-4.6-20.6-4.6-28.5,0l-102.2,59c-1.3,0.8-2.4,1.6-3.3,2.5l307.3,39.2L188.8,205.8z"></path>
<g>
	<polygon class="st10" points="222,368.4 83.6,288 200.4,220.2 340.8,301.6  "></polygon>
</g>
<g>
	<g class="st0">
		<defs>
			<path id="SVGID_7_" class="st0" d="M205.3,78.5l-0.5,161.6c-3.9-2.2-10.1-2.2-14,0l0.5-161.6C195.1,76.3,201.4,76.3,205.3,78.5z"></path>
		</defs>
		<clipPath id="SVGID_8_">
			<use xlink:href="#SVGID_7_" style="overflow:visible;"></use>
		</clipPath>
		<g class="st44">
			<path class="st45" d="M205.3,78.5l-0.5,161.6c-0.4-0.3-0.9-0.5-1.4-0.7l0.5-161.6C204.4,78,204.8,78.2,205.3,78.5L205.3,78.5z"></path>
			<path class="st46" d="M203.9,77.8l-0.5,161.6c-0.4-0.2-0.8-0.3-1.2-0.4l0.5-161.6C203.1,77.5,203.5,77.7,203.9,77.8L203.9,77.8z"></path>
			<path class="st47" d="M202.7,77.4L202.2,239c-0.3-0.1-0.7-0.2-1-0.3l0.5-161.6C202,77.2,202.3,77.3,202.7,77.4L202.7,77.4z"></path>
			<path class="st48" d="M201.6,77.1l-0.5,161.6c-0.3-0.1-0.6-0.1-1-0.2L200.6,77C201,77,201.3,77.1,201.6,77.1L201.6,77.1z"></path>
			<path class="st49" d="M200.6,77l-0.5,161.6c-0.3,0-0.6-0.1-1-0.1l0.5-161.6C200,76.9,200.3,76.9,200.6,77L200.6,77z"></path>
			<path class="st50" d="M199.7,76.9l-0.5,161.6c-0.3,0-0.7,0-1-0.1l0.5-161.6C199,76.8,199.4,76.8,199.7,76.9L199.7,76.9z"></path>
			<path class="st51" d="M198.7,76.8l-0.5,161.6c-0.3,0-0.7,0-1,0l0.5-161.6C198,76.8,198.4,76.8,198.7,76.8L198.7,76.8z"></path>
			<path class="st52" d="M197.7,76.8l-0.5,161.6c-0.4,0-0.7,0-1.1,0.1l0.5-161.6C196.9,76.9,197.3,76.8,197.7,76.8L197.7,76.8z"></path>
			<path class="st53" d="M196.6,76.9l-0.5,161.6c-0.4,0-0.8,0.1-1.3,0.2l0.5-161.6C195.7,77,196.2,76.9,196.6,76.9L196.6,76.9z"></path>
			<path class="st54" d="M195.3,77.1l-0.5,161.6c-0.7,0.1-1.3,0.3-1.9,0.5l0.5-161.6C194,77.3,194.7,77.2,195.3,77.1L195.3,77.1z"></path>
			<path class="st55" d="M193.4,77.5L193,239.1c-0.8,0.3-1.5,0.6-2.2,1l0.5-161.6C191.9,78.1,192.7,77.8,193.4,77.5L193.4,77.5z"></path>
		</g>
	</g>
	<g class="st0">
		<defs>
			<path id="SVGID_9_" class="st0" d="M187.9,244.1l0.5-161.6c0-1.5,1-2.9,2.9-4l-0.5,161.6C188.9,241.2,187.9,242.6,187.9,244.1z"></path>
		</defs>
		<clipPath id="SVGID_10_">
			<use xlink:href="#SVGID_9_" style="overflow:visible;"></use>
		</clipPath>
		<g class="st56">
			<path class="st55" d="M191.3,78.5l-0.5,161.6c0,0-0.1,0.1-0.1,0.1l0.5-161.6C191.2,78.5,191.2,78.5,191.3,78.5L191.3,78.5z"></path>
			<path class="st54" d="M191.2,78.6l-0.5,161.6c-0.5,0.3-0.9,0.6-1.3,0.9l0.5-161.6C190.3,79.2,190.7,78.9,191.2,78.6L191.2,78.6z"></path>
			<path class="st53" d="M189.9,79.5l-0.5,161.6c-0.2,0.2-0.4,0.4-0.6,0.7l0.5-161.6C189.5,79.9,189.7,79.7,189.9,79.5L189.9,79.5z"></path>
			<path class="st52" d="M189.3,80.2l-0.5,161.6c-0.1,0.2-0.3,0.4-0.4,0.6l0.5-161.6C189,80.5,189.1,80.3,189.3,80.2L189.3,80.2z"></path>
			<path class="st51" d="M188.9,80.8l-0.5,161.6c-0.1,0.2-0.2,0.4-0.3,0.6l0.5-161.6C188.7,81.1,188.8,80.9,188.9,80.8L188.9,80.8z"></path>
			<path class="st50" d="M188.6,81.3l-0.5,161.6c-0.1,0.2-0.1,0.4-0.2,0.6l0.5-161.6C188.5,81.7,188.5,81.5,188.6,81.3L188.6,81.3z"></path>
			<path class="st49" d="M188.5,81.9L188,243.4c0,0.2-0.1,0.4-0.1,0.6l0.5-161.6C188.4,82.3,188.4,82.1,188.5,81.9L188.5,81.9z"></path>
			<path class="st48" d="M188.4,82.4L187.9,244c0,0,0,0.1,0,0.1L188.4,82.4C188.4,82.5,188.4,82.5,188.4,82.4L188.4,82.4z"></path>
		</g>
	</g>
	<g class="st0">
		<defs>
			<path id="SVGID_11_" class="st0" d="M187.9,244.1l0.5-161.6c0,1.5,1,3,2.9,4.1l-0.5,161.6C188.9,247.1,187.9,245.6,187.9,244.1z"></path>
		</defs>
		<clipPath id="SVGID_12_">
			<use xlink:href="#SVGID_11_" style="overflow:visible;"></use>
		</clipPath>
		<g class="st57">
			<path class="st24" d="M191.3,86.6l-0.5,161.6c-2-1.1-2.9-2.6-2.9-4.1l0.5-161.6C188.4,84,189.4,85.5,191.3,86.6L191.3,86.6z"></path>
		</g>
	</g>
	<g>
		<polygon class="st58" points="306.9,137.2 306.5,298.7 204.8,240.1 205.3,78.5   "></polygon>
	</g>
	<g>
		<polygon class="st1" points="314.1,133 313.6,294.6 306.5,298.7 306.9,137.2   "></polygon>
	</g>
	<g>
		<polygon class="st38" points="306.9,137.2 306.5,298.7 303.6,297.9 292.5,304.6 293,145.3   "></polygon>
	</g>
	<g>
		<polygon class="st26" points="293,145.3 292.5,306.9 190.8,248.2 191.3,86.6   "></polygon>
	</g>
	<g>
		<path class="st3" d="M306.9,137.2l-14,8.1L191.3,86.6c-3.9-2.2-3.9-5.9,0-8.1c3.8-2.2,10.1-2.2,14,0L306.9,137.2z"></path>
	</g>
	<g>
		<path class="st59" d="M191.3,86.6L293,145.3l11.1-6.4l-102-58.7c-3.2-1.9-8.2-2.2-11.9-0.9C187.5,81.5,187.9,84.6,191.3,86.6z"></path>
	</g>
	<g>
		<polygon class="st1" points="293,145.3 292.5,306.9 285.3,311 285.8,149.5   "></polygon>
	</g>
	<path class="st2" d="M180.8,88.8c-3.9-2.3-5.9-5.3-5.9-8.3l-0.5,161.6c0,3,2,6,5.9,8.3l105,60.6l0.5-161.6L180.8,88.8z"></path>
	<g>
		<path class="st2" d="M314.1,133l-7.2,4.2L205.3,78.5c-3.9-2.2-10.2-2.2-14,0c-3.9,2.2-3.8,5.9,0,8.1L293,145.3l-7.2,4.2l-105-60.6    c-7.8-4.5-7.9-11.9-0.1-16.4c7.8-4.5,20.5-4.5,28.4,0L314.1,133z"></path>
	</g>
	<g>
		<path class="st60" d="M191.3,78.5c3.8-2.2,10.1-2.2,14,0l101.7,58.7l5.6-3.2L209.1,74.2c-7.8-4.5-20.6-4.5-28.4,0    c-3.5,2-5.3,4.6-5.7,7.3c0.4,2.7,2.2,5.3,5.8,7.3l105,60.6l7.2-4.2L192,87c-2.3-1.4-3-2.4-3.5-3.6C187.9,81.7,189,79.8,191.3,78.5    z"></path>
	</g>
	<polygon class="st3" points="306.9,137.2 306.5,298.7 303.6,297.9 304.1,138.8  "></polygon>
	<polygon class="st61" points="298.8,180.2 299.3,263.2 300.2,232.1 300.9,143  "></polygon>
	<polygon class="st62" points="229.2,104.3 296.9,143 294.5,144.4  "></polygon>
	<polygon class="st61" points="296.9,143 295.8,199.1 294.5,144.4  "></polygon>
	<polygon class="st61" points="229.2,104.3 296.9,143 295.7,143.7  "></polygon>
	<polygon class="st63" points="295.7,143.7 296.2,177.7 296.9,143  "></polygon>
	<polygon class="st63" points="295.7,218 294.5,303.3 296.9,301.9  "></polygon>
	<path class="st64" d="M174.9,80.6l-0.5,161.6c0,1.2,0.4,2.3,1,3.5l110.4-96.1l-105-60.6C176.9,86.5,174.9,83.6,174.9,80.6z"></path>
</g>
<g>
	<g class="st0">
		<defs>
			<path id="SVGID_13_" class="st0" d="M168.4,102.6l-0.5,161.6c-3.9-2.2-10.1-2.2-14,0l0.5-161.6     C158.2,100.3,164.5,100.3,168.4,102.6z"></path>
		</defs>
		<clipPath id="SVGID_14_">
			<use xlink:href="#SVGID_13_" style="overflow:visible;"></use>
		</clipPath>
		<g class="st65">
			<path class="st45" d="M168.4,102.6l-0.5,161.6c-0.4-0.3-0.9-0.5-1.4-0.7l0.5-161.6C167.4,102.1,167.9,102.3,168.4,102.6     L168.4,102.6z"></path>
			<path class="st46" d="M166.9,101.9l-0.5,161.6c-0.4-0.2-0.8-0.3-1.2-0.4l0.5-161.6C166.1,101.6,166.5,101.7,166.9,101.9     L166.9,101.9z"></path>
			<path class="st47" d="M165.7,101.5l-0.5,161.6c-0.3-0.1-0.7-0.2-1-0.3l0.5-161.6C165,101.3,165.4,101.4,165.7,101.5L165.7,101.5z     "></path>
			<path class="st48" d="M164.7,101.2l-0.5,161.6c-0.3-0.1-0.7-0.1-1-0.2l0.5-161.6C164.1,101.1,164.4,101.2,164.7,101.2     L164.7,101.2z"></path>
			<path class="st49" d="M163.7,101.1l-0.5,161.6c-0.3,0-0.6-0.1-1-0.1l0.5-161.6C163.1,101,163.4,101,163.7,101.1L163.7,101.1z"></path>
			<path class="st50" d="M162.8,101l-0.5,161.6c-0.3,0-0.7,0-1-0.1l0.5-161.6C162.1,100.9,162.4,100.9,162.8,101L162.8,101z"></path>
			<path class="st51" d="M161.8,100.9l-0.5,161.6c-0.3,0-0.7,0-1,0l0.5-161.6C161.1,100.9,161.4,100.9,161.8,100.9L161.8,100.9z"></path>
			<path class="st52" d="M160.8,100.9l-0.5,161.6c-0.4,0-0.7,0-1.1,0.1l0.5-161.6C160,101,160.4,100.9,160.8,100.9L160.8,100.9z"></path>
			<path class="st53" d="M159.7,101l-0.5,161.6c-0.4,0-0.8,0.1-1.3,0.2l0.5-161.6C158.8,101.1,159.2,101,159.7,101L159.7,101z"></path>
			<path class="st54" d="M158.4,101.2l-0.5,161.6c-0.7,0.1-1.3,0.3-1.9,0.5l0.4-161.6C157.1,101.4,157.8,101.3,158.4,101.2     L158.4,101.2z"></path>
			<path class="st55" d="M156.5,101.6l-0.4,161.6c-0.8,0.3-1.5,0.6-2.2,1l0.5-161.6C155,102.2,155.7,101.9,156.5,101.6L156.5,101.6z     "></path>
		</g>
	</g>
	<g class="st0">
		<defs>
			<path id="SVGID_15_" class="st0" d="M151,268.2l0.5-161.6c0-1.5,1-2.9,2.9-4l-0.5,161.6C152,265.3,151,266.7,151,268.2z"></path>
		</defs>
		<clipPath id="SVGID_16_">
			<use xlink:href="#SVGID_15_" style="overflow:visible;"></use>
		</clipPath>
		<g class="st66">
			<path class="st55" d="M154.4,102.6l-0.5,161.6c0,0-0.1,0-0.1,0.1l0.5-161.6C154.3,102.6,154.3,102.6,154.4,102.6L154.4,102.6z"></path>
			<path class="st54" d="M154.2,102.7l-0.5,161.6c-0.5,0.3-0.9,0.6-1.3,0.9l0.5-161.6C153.3,103.3,153.8,102.9,154.2,102.7     L154.2,102.7z"></path>
			<path class="st53" d="M153,103.6l-0.5,161.6c-0.2,0.2-0.4,0.4-0.6,0.7l0.5-161.6C152.5,104,152.7,103.8,153,103.6L153,103.6z"></path>
			<path class="st52" d="M152.4,104.2l-0.5,161.6c-0.2,0.2-0.3,0.4-0.4,0.6l0.5-161.6C152.1,104.6,152.2,104.4,152.4,104.2     L152.4,104.2z"></path>
			<path class="st51" d="M152,104.8l-0.5,161.6c-0.1,0.2-0.2,0.4-0.3,0.6l0.5-161.6C151.8,105.2,151.9,105,152,104.8L152,104.8z"></path>
			<path class="st50" d="M151.7,105.4L151.2,267c-0.1,0.2-0.1,0.4-0.2,0.6l0.5-161.6C151.6,105.8,151.6,105.6,151.7,105.4     L151.7,105.4z"></path>
			<path class="st49" d="M151.5,106l-0.5,161.6c0,0.2-0.1,0.4-0.1,0.6l0.5-161.6C151.5,106.3,151.5,106.2,151.5,106L151.5,106z"></path>
			<path class="st48" d="M151.5,106.5L151,268.1c0,0,0,0.1,0,0.1L151.5,106.5C151.5,106.6,151.5,106.6,151.5,106.5L151.5,106.5z"></path>
		</g>
	</g>
	<g class="st0">
		<defs>
			<path id="SVGID_17_" class="st0" d="M151,268.2l0.5-161.6c0,1.5,1,3,2.9,4.1l-0.5,161.6C152,271.2,151,269.7,151,268.2z"></path>
		</defs>
		<clipPath id="SVGID_18_">
			<use xlink:href="#SVGID_17_" style="overflow:visible;"></use>
		</clipPath>
		<g class="st67">
			<path class="st24" d="M154.4,110.7l-0.5,161.6c-2-1.1-2.9-2.6-2.9-4.1l0.5-161.6C151.5,108.1,152.4,109.6,154.4,110.7     L154.4,110.7z"></path>
		</g>
	</g>
	<g>
		<polygon class="st58" points="270,161.3 269.6,322.8 167.9,264.2 168.4,102.6   "></polygon>
	</g>
	<g>
		<polygon class="st68" points="277.2,157.1 276.7,318.7 269.6,322.8 270,161.3   "></polygon>
	</g>
	<g>
		<polygon class="st38" points="270,161.3 269.6,322.8 266.7,322 255.6,328.7 256,169.4   "></polygon>
	</g>
	<g>
		<polygon class="st26" points="256,169.4 255.6,331 153.9,272.3 154.4,110.7   "></polygon>
	</g>
	<g>
		<path class="st68" d="M270,161.3l-14,8.1l-101.7-58.7c-3.9-2.2-3.9-5.9,0-8.1c3.9-2.2,10.1-2.2,14,0L270,161.3z"></path>
	</g>
	<g>
		<path class="st59" d="M154.4,110.7L256,169.4l11.1-6.4l-102-58.7c-3.2-1.9-8.2-2.2-11.9-0.9C150.6,105.6,150.9,108.7,154.4,110.7z    "></path>
	</g>
	<g>
		<polygon class="st68" points="256,169.4 255.6,331 248.4,335.1 248.9,173.5   "></polygon>
	</g>
	<path class="st69" d="M143.9,112.9c-3.9-2.3-5.9-5.3-5.9-8.3l-0.5,161.6c0,3,2,6,5.9,8.3l105,60.6l0.5-161.6L143.9,112.9z"></path>
	<g>
		<path class="st69" d="M277.2,157.1l-7.1,4.2l-101.7-58.7c-3.9-2.2-10.1-2.2-14,0c-3.9,2.2-3.8,5.9,0,8.1L256,169.4l-7.2,4.2    l-105-60.6c-7.8-4.5-7.9-11.9-0.1-16.4c7.8-4.5,20.5-4.5,28.3,0L277.2,157.1z"></path>
	</g>
	<g>
		<path class="st70" d="M154.4,102.6c3.9-2.2,10.1-2.2,14,0L270,161.3l5.6-3.2L172.2,98.3c-7.8-4.5-20.5-4.5-28.3,0    c-3.5,2-5.3,4.6-5.7,7.3c0.4,2.7,2.2,5.3,5.8,7.3l105,60.6l7.2-4.2l-100.9-58.3c-2.3-1.4-3-2.4-3.5-3.6    C151,105.8,152,103.9,154.4,102.6z"></path>
	</g>
	<polygon class="st68" points="270,161.3 269.6,322.8 266.7,322 267.1,162.9  "></polygon>
	<polygon class="st62" points="159.3,105.4 262.8,165.5 265.2,164  "></polygon>
	<polygon class="st61" points="262.8,165.5 263.2,256.2 263.2,256.2 265.2,164  "></polygon>
	<polygon class="st63" points="258.8,242.1 257.6,327.4 260,326  "></polygon>
	<g>
		<polygon class="st71" points="225.2,184.9 224.9,204.6 159.8,165.5 159.5,146.2   "></polygon>
	</g>
	<g>
		<polygon class="st71" points="225.2,215.9 224.9,235.5 159.8,196.5 159.5,177.1   "></polygon>
	</g>
	<g>
		<polygon class="st71" points="225.2,246.8 224.9,266.5 159.8,227.4 159.5,208.1   "></polygon>
	</g>
	<g>
		<polygon class="st71" points="221.3,177.2 221,196.8 155.9,157.8 155.6,138.4   "></polygon>
	</g>
	<g>
		<polygon class="st71" points="221.3,208.1 221,227.8 155.9,188.7 155.6,169.4   "></polygon>
	</g>
	<g>
		<polygon class="st71" points="221.3,239.1 221,258.7 155.9,219.7 155.6,200.4   "></polygon>
	</g>
	<path class="st64" d="M138,104.7l-0.5,161.6c0,1.2,0.4,2.3,1,3.5l110.4-96.1l-105-60.6C139.9,110.6,138,107.7,138,104.7z"></path>
</g>
<g class="st0">
	<defs>
		<path id="SVGID_19_" class="st0" d="M127.3,121.5l-0.5,161.6c-3.9-2.2-10.2-2.2-14,0l0.5-161.6    C117.1,119.3,123.4,119.3,127.3,121.5z"></path>
	</defs>
	<clipPath id="SVGID_20_">
		<use xlink:href="#SVGID_19_" style="overflow:visible;"></use>
	</clipPath>
	<g class="st72">
		<path class="st45" d="M127.3,121.5l-0.5,161.6c-0.4-0.3-0.9-0.5-1.4-0.7l0.5-161.6C126.3,121,126.8,121.3,127.3,121.5L127.3,121.5    z"></path>
		<path class="st46" d="M125.8,120.8l-0.5,161.6c-0.4-0.2-0.8-0.3-1.2-0.4l0.5-161.6C125.1,120.6,125.5,120.7,125.8,120.8    L125.8,120.8z"></path>
		<path class="st47" d="M124.6,120.4L124.2,282c-0.3-0.1-0.7-0.2-1-0.3l0.5-161.6C124,120.3,124.3,120.3,124.6,120.4L124.6,120.4z"></path>
		<path class="st48" d="M123.6,120.2l-0.5,161.6c-0.3-0.1-0.6-0.1-1-0.2l0.5-161.6C123,120.1,123.3,120.1,123.6,120.2L123.6,120.2z"></path>
		<path class="st49" d="M122.6,120l-0.5,161.6c-0.3,0-0.6-0.1-1-0.1l0.5-161.6C122,119.9,122.3,120,122.6,120L122.6,120z"></path>
		<path class="st50" d="M121.7,119.9l-0.5,161.6c-0.3,0-0.7,0-1-0.1l0.5-161.6C121,119.9,121.3,119.9,121.7,119.9L121.7,119.9z"></path>
		<path class="st51" d="M120.7,119.9l-0.5,161.6c-0.3,0-0.7,0-1,0l0.5-161.6C120,119.8,120.4,119.8,120.7,119.9L120.7,119.9z"></path>
		<path class="st52" d="M119.7,119.9l-0.5,161.6c-0.4,0-0.7,0-1.1,0.1l0.5-161.6C118.9,119.9,119.3,119.9,119.7,119.9L119.7,119.9z"></path>
		<path class="st53" d="M118.6,119.9l-0.5,161.6c-0.4,0-0.8,0.1-1.3,0.2l0.5-161.6C117.7,120,118.1,120,118.6,119.9L118.6,119.9z"></path>
		<path class="st54" d="M117.3,120.1l-0.5,161.6c-0.7,0.1-1.3,0.3-1.9,0.5l0.5-161.6C116,120.4,116.7,120.2,117.3,120.1L117.3,120.1    z"></path>
		<path class="st55" d="M115.4,120.6L115,282.1c-0.8,0.3-1.5,0.6-2.2,0.9l0.5-161.6C113.9,121.1,114.7,120.8,115.4,120.6    L115.4,120.6z"></path>
	</g>
</g>
<g class="st0">
	<defs>
		<path id="SVGID_21_" class="st0" d="M109.9,287.1l0.5-161.6c0-1.5,1-2.9,2.9-4l-0.5,161.6C110.9,284.2,109.9,285.7,109.9,287.1z"></path>
	</defs>
	<clipPath id="SVGID_22_">
		<use xlink:href="#SVGID_21_" style="overflow:visible;"></use>
	</clipPath>
	<g class="st73">
		<path class="st55" d="M113.3,121.5l-0.5,161.6c0,0-0.1,0-0.1,0.1l0.5-161.6C113.2,121.6,113.2,121.5,113.3,121.5L113.3,121.5z"></path>
		<path class="st54" d="M113.1,121.6l-0.5,161.6c-0.5,0.3-0.9,0.6-1.3,0.9l0.5-161.6C112.2,122.2,112.7,121.9,113.1,121.6    L113.1,121.6z"></path>
		<path class="st53" d="M111.9,122.5l-0.5,161.6c-0.2,0.2-0.4,0.4-0.6,0.7l0.5-161.6C111.4,123,111.7,122.7,111.9,122.5L111.9,122.5    z"></path>
		<path class="st52" d="M111.3,123.2l-0.5,161.6c-0.2,0.2-0.3,0.4-0.4,0.6l0.5-161.6C111,123.6,111.1,123.4,111.3,123.2L111.3,123.2    z"></path>
		<path class="st51" d="M110.9,123.8l-0.5,161.6c-0.1,0.2-0.2,0.4-0.3,0.6l0.5-161.6C110.7,124.2,110.8,124,110.9,123.8L110.9,123.8    z"></path>
		<path class="st50" d="M110.6,124.3l-0.5,161.6c-0.1,0.2-0.1,0.4-0.2,0.6l0.5-161.6C110.5,124.7,110.5,124.5,110.6,124.3    L110.6,124.3z"></path>
		<path class="st49" d="M110.4,124.9L110,286.5c0,0.2-0.1,0.4-0.1,0.6l0.5-161.6C110.4,125.3,110.4,125.1,110.4,124.9L110.4,124.9z"></path>
		<path class="st48" d="M110.4,125.5L109.9,287c0,0,0,0.1,0,0.1L110.4,125.5C110.4,125.5,110.4,125.5,110.4,125.5L110.4,125.5z"></path>
	</g>
</g>
<g class="st0">
	<defs>
		<path id="SVGID_23_" class="st0" d="M109.9,287.1l0.5-161.6c0,1.5,1,2.9,2.9,4.1l-0.5,161.6C110.9,290.1,109.9,288.6,109.9,287.1z    "></path>
	</defs>
	<clipPath id="SVGID_24_">
		<use xlink:href="#SVGID_23_" style="overflow:visible;"></use>
	</clipPath>
	<g class="st74">
		<path class="st24" d="M113.3,129.6l-0.5,161.6c-2-1.1-2.9-2.6-2.9-4.1l0.5-161.6C110.4,127,111.4,128.5,113.3,129.6L113.3,129.6z"></path>
	</g>
</g>
<g>
	<polygon class="st58" points="228.9,180.2 228.5,341.8 126.8,283.1 127.3,121.5  "></polygon>
</g>
<g>
	<polygon class="st1" points="236.1,176.1 235.6,337.6 228.5,341.8 228.9,180.2  "></polygon>
</g>
<g>
	<polygon class="st38" points="228.9,180.2 228.5,341.8 225.6,340.9 214.5,347.6 214.9,188.3  "></polygon>
</g>
<g>
	<polygon class="st26" points="214.9,188.3 214.5,349.9 112.8,291.2 113.3,129.6  "></polygon>
</g>
<g>
	<path class="st3" d="M228.9,180.2l-14,8.1l-101.7-58.7c-3.9-2.2-3.9-5.9,0-8.1c3.9-2.2,10.1-2.2,14,0L228.9,180.2z"></path>
</g>
<g>
	<path class="st59" d="M113.3,129.6l101.7,58.7l11.1-6.4l-102-58.7c-3.2-1.9-8.2-2.2-11.9-0.9C109.5,124.6,109.8,127.6,113.3,129.6z   "></path>
</g>
<g>
	<polygon class="st1" points="214.9,188.3 214.5,349.9 207.3,354.1 207.8,192.5  "></polygon>
</g>
<path class="st2" d="M102.8,131.9c-3.9-2.3-5.9-5.3-5.9-8.3l-0.5,161.6c0,3,2,6,5.9,8.3l105,60.6l0.5-161.6L102.8,131.9z"></path>
<g>
	<path class="st2" d="M236.1,176.1l-7.1,4.2l-101.7-58.7c-3.9-2.2-10.1-2.2-14,0c-3.9,2.2-3.8,5.9,0,8.1l101.7,58.7l-7.2,4.2   l-105-60.6c-7.8-4.5-7.9-11.9-0.1-16.4c7.8-4.5,20.5-4.5,28.4,0L236.1,176.1z"></path>
</g>
<g>
	<path class="st60" d="M113.3,121.5c3.9-2.2,10.1-2.2,14,0l101.7,58.7l5.6-3.2l-103.4-59.7c-7.8-4.5-20.6-4.5-28.4,0   c-3.5,2-5.3,4.6-5.7,7.3c0.4,2.7,2.2,5.3,5.8,7.3l105,60.6l7.2-4.2L114,130.1c-2.3-1.4-3-2.4-3.5-3.6   C109.9,124.8,110.9,122.9,113.3,121.5z"></path>
</g>
<polygon class="st3" points="228.9,180.2 228.5,341.8 225.6,340.9 226,181.9 "></polygon>
<polygon class="st62" points="118.2,124.3 221.7,184.4 224.1,183 "></polygon>
<polygon class="st61" points="221.7,184.4 222.1,275.1 222.1,275.1 224.1,183 "></polygon>
<polygon class="st62" points="151.2,147.4 218.9,186.1 216.5,187.4 "></polygon>
<polygon class="st61" points="218.9,186.1 217.8,242.2 216.5,187.4 "></polygon>
<polygon class="st61" points="151.2,147.4 218.9,186.1 217.7,186.7 "></polygon>
<polygon class="st61" points="224.1,183 182.2,159.8 222.9,183.7 "></polygon>
<polygon class="st63" points="222.9,183.7 223.3,222.2 224.1,183 "></polygon>
<polygon class="st63" points="217.7,186.7 218.2,220.7 218.9,186.1 "></polygon>
<polygon class="st63" points="217.7,261 216.5,346.4 218.9,345 "></polygon>
<g>
	<polygon class="st3" points="184.1,203.9 183.8,223.5 118.7,184.5 118.4,165.1  "></polygon>
</g>
<g>
	<polygon class="st3" points="184.1,234.8 183.8,254.5 118.7,215.4 118.4,196.1  "></polygon>
</g>
<g>
	<polygon class="st3" points="184.1,265.8 183.8,285.4 118.7,246.4 118.4,227  "></polygon>
</g>
<g>
	<polygon class="st1" points="180.2,196.1 179.9,215.8 114.8,176.7 114.5,157.4  "></polygon>
</g>
<g>
	<polygon class="st1" points="180.2,227.1 179.9,246.7 114.8,207.7 114.5,188.3  "></polygon>
</g>
<g>
	<polygon class="st1" points="180.2,258 179.9,277.7 114.8,238.6 114.5,219.3  "></polygon>
</g>
<path class="st69" d="M178.7,159.4c0,0-1.8-13.1,6.4-18.4c8-5.2,8.9-7.1,9.7-10.5l1.9,6.1l7.9-3.5c0,0-2.7,10.3-9.3,14.2  c-6.6,3.9-7.4,15.2-6,18.2L178.7,159.4z"></path>
<path class="st70" d="M195.3,147.4c6.6-3.9,9.3-14.2,9.3-14.2l-7.7,3.4c-1.6,3.2-4.1,7.3-7.6,9.9c-5,3.8-6,10.8-5.7,15.8l5.6,3.3  C187.8,162.5,188.6,151.2,195.3,147.4z"></path>
<path class="st64" d="M96.9,123.6l-0.5,161.6c0,1.2,0.4,2.3,1,3.5l110.4-96.1l-105-60.6C98.9,129.6,96.9,126.6,96.9,123.6z"></path>
<g>
	<path class="st75" d="M118.1,390.4c0,0,2.3,4.8-1.1,6.2c-3.4,1.5-3.4-0.8-9.8,4.4c-6.4,5.2-12,2.9-13.1,2c-1.7-1.5-0.8-6,13.5-13.2   L118.1,390.4z"></path>
	<path class="st76" d="M117,396.6c-3.4,1.5-3.4-0.8-9.8,4.4c-6.4,5.2-12.2,3-13.1,2c-0.1-0.1-0.5-0.4-0.5-0.7   c6,2.1,9.5-0.8,12.1-2.8c2.7-2.1,5-2.9,9.1-3.8c4.1-0.9,2.6-4.1,2.6-4.1c0.3-0.2,0.7-0.3,1.1-0.4   C118.9,392.7,119.5,395.5,117,396.6z"></path>
	<path class="st75" d="M98.1,376.2c0,0,2.3,4.8-1.1,6.2c-3.4,1.5-3.4-0.8-9.8,4.4c-6.4,5.3-12.2,3-13.1,2c-0.7-0.8-0.8-6,13.5-13.2   L98.1,376.2z"></path>
	<path class="st76" d="M96.9,382.4c-3.4,1.5-3.4-0.8-9.8,4.4c-6.4,5.3-12.2,3-13.1,2c-0.1-0.1-0.2-0.3-0.2-0.7   c6,2.1,9.2-0.9,11.8-2.9c2.7-2.1,5-2.9,9.1-3.8c4.1-0.9,2.6-4,2.6-4c0.3-0.2,0.7-0.3,1.1-0.4C98.9,378.5,99.4,381.4,96.9,382.4z"></path>
	<path class="st77" d="M128.3,313.7c0,0-6.8-1-10.5-5c0,0-25.9,18-28,23.8c-2.1,5.5-5,32.4-4.8,44c0.1,3.7,13.9,6.4,14.8,1.1   c1.5-9.6,2.6-36.3,2.6-36.3S133.1,330.2,128.3,313.7z"></path>
	<path class="st78" d="M151,312c0,0,3.7,13-5.8,20.3c-9.5,7.3-26.2,17.4-26.2,17.4s0.9,8.9,0.6,23.9c-0.3,13.7-0.1,13.3-0.6,18.2   c-0.4,3.5-13.9,4.6-14.5-1.5c-1.3-12.5-1-44.1,1.6-49.9c2.6-5.7,21-18.5,21-18.5l-2.9-8.9C124.2,312.9,141.5,317.2,151,312z"></path>
	<path class="st78" d="M151,312c0,0,3.7,13-5.8,20.3c-9.5,7.3-26.2,17.4-26.2,17.4s0.9,8.9,0.6,23.9c-0.3,13.7-0.1,13.3-0.6,18.2   c-0.4,3.5-13.9,4.6-14.5-1.5c-1.3-12.5-1-44.1,1.6-49.9c2.6-5.7,21-18.5,21-18.5l-2.9-8.9C124.2,312.9,141.5,317.2,151,312z"></path>
	<g>
		<path class="st79" d="M91.2,285.5c0,0-1.4-1.1-4.6-1.4c-3.2-0.4-4,0.4-5.8,1.1c-1.8,0.7-3.2,1.4-2.8,2.3c0.4,0.9,4.5,2.4,7.1,1.8    c1.6-0.4,5.5,1.8,6.4,1.8C92.3,291.1,92.1,286,91.2,285.5z"></path>
		<path class="st80" d="M91.4,291.1c-0.9,0-4.8-2.2-6.4-1.8c-1.8,0.4-4.5-0.2-6-1c0,0,0-0.1,0.1-0.1c0.4-0.5,1.7-0.1,2.6-0.4    c0.9-0.2,3.5,0,5.2-0.3c1.7-0.3,4.8,1.6,4.8,1.6l0.3,0.2C92,290.3,91.8,291.1,91.4,291.1z"></path>
		<path class="st81" d="M129.8,258.3c0,0-5.1-6.5-10.1,0.7c-3.3,4.7-8.8,23.4-10.9,25c-1,0.8-18.4,0.1-18.4,0.1s2.6,2.6-0.8,7.5    c0,0,22.6,7.2,26.3,2.6C122.4,286.3,133,266.2,129.8,258.3z"></path>
	</g>
	<path class="st82" d="M120.6,296.4c0.1-0.6,0.1-1.4,0.2-2.3c0,0,0-0.1,0-0.1c0.1-2.7,0.3-5.4-2.7-12.1c-2.1-4.5-2.2-10.9-0.8-15.2   c0.6-6.8,4.1-11.3,5.9-12.7c2.8-2.1,27,8,27.7,8.5c9,6.4-3.2,18.9,0,40.5c1.7,11.4,0.9,12,0.9,12c-16.7,8.2-35-6-35-6   s0.4-0.6,1-1.7C118.7,304.7,120.3,299.1,120.6,296.4z"></path>
	<path class="st82" d="M120.6,296.4c0.1-0.6,0.1-1.4,0.2-2.3c0,0,0-0.1,0-0.1c0.1-2.7,0.3-5.4-2.7-12.1c-2.1-4.5-2.2-10.9-0.8-15.2   c0.6-6.8,4.1-11.3,5.9-12.7c2.8-2.1,27,8,27.7,8.5c9,6.4-3.2,18.9,0,40.5c1.7,11.4,0.9,12,0.9,12c-16.7,8.2-35-6-35-6   s0.4-0.6,1-1.7C118.7,304.7,120.3,299.1,120.6,296.4z"></path>
	<g>
		<path class="st83" d="M128.5,251.5c0,0,1.3,5.9,0,9c-1.3,3.1,3.4,4.1,5.7,3.3c2.3-0.8,5.8-2.3,5.3-4.3c-0.5-2-2.5-8.6-1.2-10.9    C139.6,246.2,128.5,251.5,128.5,251.5z"></path>
		<path class="st79" d="M139.9,233.2c0,0,6.8,6.7,4.9,13.8c-1,3.9-5.5,6.5-8.1,8.5c-2.6,2-9,6.6-11.7,1.9c-2.7-4.7-5.8-18.1,0-24.2    C130.9,227.2,139.9,233.2,139.9,233.2z"></path>
		<path class="st84" d="M125.1,236.2c0,0,0.8,4.7,9.7,6c2.5,0.4,2.1,8.1,4.1,6.1c0.8-0.7,2.7-2.2,3-1.1c1.1,5.3-6.5,6.9-5.3,10.4    c1.9,5.4,17.2,12.8,11.9-18.5c-1.3-7.4-5.8-12.6-16.4-11.7c-8.3,0.7-11.9,7.9-8.9,8.9C123.6,236.4,123.3,236,125.1,236.2z"></path>
	</g>
	<g>
		<path class="st79" d="M132.8,307.7c0,0-1.8-0.2-4.8,1.2c-3,1.4-3.3,2.5-4.6,4.1c-1.2,1.6-2,3-1.2,3.6c0.8,0.6,5.3-0.3,7.2-2.2    c1.2-1.2,5.8-1.4,6.6-1.8C136.8,312.1,133.9,307.6,132.8,307.7z"></path>
		<path class="st80" d="M136,312.6c-0.8,0.5-5.4,0.7-6.6,1.8c-1.4,1.4-4.1,2.2-5.8,2.3c0,0,0-0.1,0-0.1c0.1-0.7,1.5-1.1,2.1-1.7    c0.6-0.7,3.1-1.9,4.4-3.1c1.3-1.2,5.1-1.2,5.1-1.2l0.4,0C136,311.6,136.3,312.4,136,312.6z"></path>
		<path class="st85" d="M150.4,262.5c-1.7-0.9-5.2-1.7-6,4.2c-0.8,5.9,5.5,27.7,4.5,30.2c-0.5,1.3-17.4,9.9-17.4,9.9    s3.7,0.9,3.3,7.1c0,0,23.9-5.7,24.7-11.9C160.8,291.6,158.1,266.8,150.4,262.5z"></path>
	</g>
	<path class="st77" d="M119,391.7c0.5-4.8,0.3-4.4,0.6-18.2c0.3-15.1-0.6-23.9-0.6-23.9s16.7-10.1,26.2-17.4   c4.7-3.6,6.2-8.7,6.4-12.8c-3.5,8.6-24.5,23.2-31.2,25.2c-8.5,2.7-4,13.1-4.2,15.4c-0.1,1.9,0.5,24.8,0.8,33.6   C118.2,393.1,118.9,392.5,119,391.7z"></path>
</g>
<g>
	<g>
		<path class="st1" d="M103,236.9l-59.2-34.9c-1.4-0.8-2.6-0.2-2.6,1.5l-0.1,5.7l64.3,37.9l0.1-5.7    C105.5,239.8,104.4,237.8,103,236.9z"></path>
		<g>
			<path class="st86" d="M105.5,241.4l-0.1,5.7l-64.3-37.9l-0.5,43.3c0,1.6,1.1,3.6,2.5,4.5l59.2,34.9c1.4,0.8,2.6,0.2,2.6-1.5     L105.5,241.4z"></path>
		</g>
	</g>
	<g>
		<polygon class="st6" points="89.2,243.7 89.1,247.6 53,226.7 53,222.9   "></polygon>
	</g>
	<g>
		<polygon class="st6" points="89.2,251.8 89.1,255.6 53,234.8 53,230.9   "></polygon>
	</g>
	<g>
		<polygon class="st6" points="89.2,262.6 89.1,266.4 53,245.6 53,241.7   "></polygon>
	</g>
	<g>
		<polygon class="st6" points="89.2,270.6 89.1,274.5 53,253.6 53,249.8   "></polygon>
	</g>
</g>
</svg>